 <svg version="1.1" stroke="black" stroke-width="5" stroke-linejoin="round" stroke-linecap="round"  id="Layer_1" xmlns="http://www.w3.org/2000/svg" xmlns:xlink="http://www.w3.org/1999/xlink" x="0px" y="0px"
	 width="187.477px" height="187.477px" viewBox="0 0 187.477 187.477" enable-background="new 0 0 187.477 187.477"
	 xml:space="preserve">
<path fill-rule="evenodd" clip-rule="evenodd" fill="none" d="M93.738,179.228H56.993c0,0-5.249,1.875-7.499-12.749
	c-2.25-14.623-17.248-119.235-17.248-119.235h61.492h59.993l-15.748,122.235c0,0-2.625,9.749-9.749,9.749
	S93.738,179.228,93.738,179.228z"/>
<path fill-rule="evenodd" clip-rule="evenodd" fill="none" d="M31.496,47.244h-4.5c0,0-3.375-25.122,11.999-25.497
	c15.373-0.375,107.986,0,107.986,0s13.874,2.25,14.249,23.997l-0.75,1.5h-6.749"/>
<path fill-rule="evenodd" clip-rule="evenodd" fill="none" d="M43.495,20.248c0,0-0.75-12.374,9.749-12.749
	c10.499-0.375,80.99,0,80.99,0s8.624,0.75,8.249,12.749"/>
<path fill-rule="evenodd" clip-rule="evenodd" fill="none" d="M40.495,93.738h22.497c0,0,7.499-24.372,30.746-24.747
	s29.246,24.747,29.246,24.747h23.247"/>
<path fill-rule="evenodd" clip-rule="evenodd" fill="none" d="M143.232,121.485h-19.498c0,0-5.624,25.497-29.996,25.497
	s-29.996-25.497-29.996-25.497H44.245"/>
<path fill-rule="evenodd" clip-rule="evenodd" fill="none" d="M93.738,89.989c0,0-15.748,0-14.998,17.248
	c0.75,17.248,14.998,17.998,14.998,17.998s13.499-3,13.499-17.248C107.237,93.738,102.373,91.556,93.738,89.989z"/>
</svg>
