<svg version="1.1"  stroke="black" stroke-width="5" stroke-linejoin="round" id="Layer_1" xmlns="http://www.w3.org/2000/svg" xmlns:xlink="http://www.w3.org/1999/xlink" x="0px" y="0px"
	 width="187.477px" height="187.477px" viewBox="0 0 187.477 187.477" enable-background="new 0 0 187.477 187.477"
	 xml:space="preserve">
<path fill-rule="evenodd" clip-rule="evenodd" fill="none" d="M93.738,98.988c0,0,26.997,0.75,26.997-16.498
	s-18.748-18.748-26.997-18.748s-28.497,4.5-28.497,17.248C65.242,93.738,84.272,99.396,93.738,98.988z"/>
<path fill-rule="evenodd" clip-rule="evenodd" fill="none" d="M93.738,37.495c0,0-81.74-2-81.74,56.243s62.242,66.742,81.74,66.742
	s82.49-10.249,82.49-62.992S111.366,37.495,93.738,37.495z"/>
<path fill-rule="evenodd" clip-rule="evenodd" fill="none" d="M35.246,93.738l11.249,2.25"/>
<path fill-rule="evenodd" clip-rule="evenodd" fill="none" d="M63.742,106.487l10.499,7.499"/>
<path fill-rule="evenodd" clip-rule="evenodd" fill="none" d="M101.987,118.485l11.249-6.75"/>
<path fill-rule="evenodd" clip-rule="evenodd" fill="none" d="M128.984,93.738l11.999,4.5"/>
<path fill-rule="evenodd" clip-rule="evenodd" fill="none" d="M146.981,80.24l-5.249-12.748"/>
<path fill-rule="evenodd" clip-rule="evenodd" fill="none" d="M124.484,50.244l-11.999,4.5"/>
<path fill-rule="evenodd" clip-rule="evenodd" fill="none" d="M77.99,46.494l15.748,3"/>
<path fill-rule="evenodd" clip-rule="evenodd" fill="none" d="M56.993,52.494l6.75,8.999"/>
<path fill-rule="evenodd" clip-rule="evenodd" fill="none" d="M41.995,65.992l-10.499,7.499"/>
<path fill-rule="evenodd" clip-rule="evenodd" fill="none" d="M14.248,104.237c0,0,8.999,7.499,12.749,11.999s11.249,5.5,17.998,4.5
	c6.749-1,14.498,6.999,16.498,8.999c2,2,11.499,4,23.997-0.75s14.748,0.25,17.998,1.5c3.25,1.25,7.249,2.5,12.748-0.75
	c5.5-3.25,10.249-6.749,14.998-6c4.75,0.75,17.248,2,20.248-3.75c3-5.749,7.249-10.249,11.999-10.499s11.499-3,11.249-7.499"/>
</svg>
