<svg version="1.1" stroke="black" stroke-width="5" stroke-linejoin="round" id="Layer_1" xmlns="http://www.w3.org/2000/svg" xmlns:xlink="http://www.w3.org/1999/xlink" x="0px" y="0px"
	 width="187.477px" height="187.477px" viewBox="0 0 187.477 187.477" enable-background="new 0 0 187.477 187.477"
	 xml:space="preserve">
<path fill-rule="evenodd" clip-rule="evenodd" fill="none" d="M25.122,102.737h137.232c5.591,0,10.124,4.532,10.124,10.124
	s-4.533,10.124-10.124,10.124H25.122c-5.591,0-10.124-4.533-10.124-10.124S19.531,102.737,25.122,102.737z"/>
<path fill-rule="evenodd" clip-rule="evenodd" fill="none" d="M23.997,101.237V87.739"/>
<path fill-rule="evenodd" clip-rule="evenodd" fill="none" d="M164.229,101.237V87.739"/>
<path fill-rule="evenodd" clip-rule="evenodd" fill="none" d="M23.247,74.991c0,0-7.499,6.249-3,9.749s16.998,4.5,23.247-2.25
	c0,0,6.499,7.249,14.998,6.749s14.998-4.25,17.998-8.249c0,0,5.5,9.749,17.248,9.749s19.498-8.999,19.498-8.999
	s6.499,8.999,15.748,8.249s16.498-7.499,16.498-7.499s12.748,9.999,21.747,3.75c8.999-6.25-1.5-10.499-1.5-10.499"/>
<path fill-rule="evenodd" clip-rule="evenodd" fill="none" d="M23.247,71.991c0,0,4.75-34.496,41.995-34.496
	c37.246,0,71.991,0,71.991,0s26.247,4,26.247,34.496H23.247z"/>
<path fill-rule="evenodd" clip-rule="evenodd" fill="none" d="M23.997,123.734v20.248c0,0-1,9.749,14.998,9.749s113.986,0,113.986,0
	s11.749-1,11.999-11.249c0.25-10.249,0-18.748,0-18.748"/>
<path fill-rule="evenodd" clip-rule="evenodd" fill="none" d="M54.743,48.744c2.485,0,4.5,2.015,4.5,4.5c0,2.485-2.015,4.5-4.5,4.5
	s-4.5-2.014-4.5-4.5C50.244,50.758,52.258,48.744,54.743,48.744z"/>
<path fill-rule="evenodd" clip-rule="evenodd" fill="none" d="M64.492,59.243c2.485,0,4.5,2.014,4.5,4.5c0,2.485-2.014,4.5-4.5,4.5
	c-2.485,0-4.499-2.015-4.499-4.5C59.993,61.257,62.007,59.243,64.492,59.243z"/>
<path fill-rule="evenodd" clip-rule="evenodd" fill="none" d="M70.491,47.244c2.071,0,3.75,1.679,3.75,3.75s-1.679,3.75-3.75,3.75
	s-3.75-1.679-3.75-3.75S68.42,47.244,70.491,47.244z"/>
</svg>
