<svg version="1.1" stroke="black" stroke-width="5" stroke-linejoin="round" id="Layer_1" xmlns="http://www.w3.org/2000/svg" xmlns:xlink="http://www.w3.org/1999/xlink" x="0px" y="0px"
	 width="187.477px" height="187.477px" viewBox="0 0 187.477 187.477" enable-background="new 0 0 187.477 187.477"
	 xml:space="preserve">
<path fill-rule="evenodd" clip-rule="evenodd" fill="none" d="M12.749,93.738c0,0-5,4.5,0.75,14.248
	c5.749,9.749,20.247,32.246,20.247,32.246s21.498,11.499,59.993,11.249s56.993-8.999,56.993-8.999l23.997-35.995
	c0,0,5.25-11.749,0.75-14.998"/>
<path fill-rule="evenodd" clip-rule="evenodd" fill="none" d="M93.738,50.994c0,0-42.995-4.75-77.99,39.745
	c0,0-5.25,5.749,7.499,13.498s26.997-0.75,26.997-0.75s7.249,9.999,23.247,9.749s20.248-6,20.248-6s9.499,7,22.497,6.75
	c12.999-0.25,20.248-9.749,20.248-9.749s11.249,4,20.998,3c9.749-1,15.998-9.999,14.248-17.248
	C169.979,82.74,148.504,55.095,93.738,50.994z"/>
<path fill-rule="evenodd" clip-rule="evenodd" fill="none" d="M93.738,76.49v11.249"/>
<path fill-rule="evenodd" clip-rule="evenodd" fill="none" d="M116.235,70.491l6.749,5.999"/>
<path fill-rule="evenodd" clip-rule="evenodd" fill="none" d="M71.991,70.491l-7.5,5.999"/>
</svg>
