<svg version="1.1" stroke="black" stroke-width="5" stroke-linejoin="round"  id="Layer_1" xmlns="http://www.w3.org/2000/svg" xmlns:xlink="http://www.w3.org/1999/xlink" x="0px" y="0px"
	 width="187.477px" height="187.477px" viewBox="0 0 187.477 187.477" enable-background="new 0 0 187.477 187.477"
	 xml:space="preserve">
<path fill-rule="evenodd" clip-rule="evenodd" fill="none" d="M20.998,167.229L83.24,15.748c0,0,38.495,6.499,60.742,32.996
	c22.247,26.497,29.997,59.243,29.997,59.243L20.998,167.229z"/>
<path fill-rule="evenodd" clip-rule="evenodd" fill="none" d="M75.741,38.995c0,0,34.746,15.748,46.494,29.247
	c11.749,13.498,24.997,36.995,27.747,46.494"/>
<path fill-rule="evenodd" clip-rule="evenodd" fill="none" d="M113.611,95.988c7.662,0,13.873,6.211,13.873,13.874
	s-6.211,13.873-13.873,13.873s-13.874-6.211-13.874-13.873S105.949,95.988,113.611,95.988z"/>
<path fill-rule="evenodd" clip-rule="evenodd" fill="none" d="M83.24,116.985c5.798,0,10.499,4.7,10.499,10.499
	s-4.7,10.499-10.499,10.499s-10.499-4.701-10.499-10.499S77.441,116.985,83.24,116.985z"/>
<path fill-rule="evenodd" clip-rule="evenodd" fill="none" d="M46.119,123.734c4.763,0,8.624,3.861,8.624,8.624
	s-3.861,8.624-8.624,8.624c-4.763,0-8.624-3.861-8.624-8.624S41.356,123.734,46.119,123.734z"/>
<path fill-rule="evenodd" clip-rule="evenodd" fill="none" d="M71.616,68.242c7.662,0,13.873,6.211,13.873,13.873
	s-6.211,13.873-13.873,13.873c-7.662,0-13.874-6.211-13.874-13.873S63.954,68.242,71.616,68.242z"/>
<path fill-rule="evenodd" clip-rule="evenodd" fill="none" d="M117.735,83.24c4.556,0,8.249,3.693,8.249,8.249
	c0,4.556-3.693,8.249-8.249,8.249s-8.249-3.693-8.249-8.249C109.486,86.933,113.18,83.24,117.735,83.24z"/>
</svg>
