<svg version="1.1" stroke="black" stroke-width="5" stroke-linejoin="round"  id="Layer_1" xmlns="http://www.w3.org/2000/svg" xmlns:xlink="http://www.w3.org/1999/xlink" x="0px" y="0px"
	 width="187.477px" height="187.477px" viewBox="0 0 187.477 187.477" enable-background="new 0 0 187.477 187.477"
	 xml:space="preserve">
<path fill-rule="evenodd" clip-rule="evenodd" fill="none" d="M56.993,46.494c0,0,17.748-14.998,36.746-15.748s38.245,0,38.245,0
	l-3.75,11.249l11.999-0.75c0,0-5.749,34.496-59.243,43.494C80.99,84.739,57.331,71.757,56.993,46.494z"/>
<path fill-rule="evenodd" clip-rule="evenodd" fill="none" d="M80.24,87.739c0,0-15.499,8.749-15.749,26.997
	c-0.25,18.248,17.248,29.996,25.497,29.996s24.497-11.999,29.246-17.248c4.75-5.249,6.5,8.249,0.75,11.999c0,0,7.999,1.5,0.75,8.249
	s-14.748,7.999-26.997,8.999s-59.493-9.749-60.742-56.243c-1.25-46.494,23.247-53.243,23.247-53.243"/>
<path fill-rule="evenodd" clip-rule="evenodd" fill="none" d="M35.246,93.738c0,0,5,7.249,19.498,6"/>
<path fill-rule="evenodd" clip-rule="evenodd" fill="none" d="M40.495,125.234c0,0,9.999,1.75,15.748-3"/>
<path fill-rule="evenodd" clip-rule="evenodd" fill="none" d="M60.742,145.482c0,0,3.25-1,5.25-4.5"/>
<path fill-rule="evenodd" clip-rule="evenodd" fill="none" d="M81.74,89.239c0,0,6.249,18.998,29.996,18.748"/>
<path fill-rule="evenodd" clip-rule="evenodd" fill="none" d="M93.738,83.989c0,0,11.249,9.749,26.247,9.749"/>
<path fill-rule="evenodd" clip-rule="evenodd" fill="none" d="M115.86,41.245c2.278,0,4.125,1.846,4.125,4.124
	s-1.847,4.125-4.125,4.125s-4.125-1.847-4.125-4.125S113.583,41.245,115.86,41.245z"/>
</svg>
