<svg version="1.1"  stroke="black" stroke-width="5" stroke-linejoin="round" id="Layer_1" xmlns="http://www.w3.org/2000/svg" xmlns:xlink="http://www.w3.org/1999/xlink" x="0px" y="0px"
	 width="187.477px" height="187.477px" viewBox="0 0 187.477 187.477" enable-background="new 0 0 187.477 187.477"
	 xml:space="preserve">
<path fill-rule="evenodd" clip-rule="evenodd" fill="none" d="M65.242,90.739c4.142,0,7.499,1.343,7.499,3s-3.357,3-7.499,3
	s-7.499-1.343-7.499-3S61.1,90.739,65.242,90.739z"/>
<path fill-rule="evenodd" clip-rule="evenodd" fill="none" d="M65.242,83.24c14.082,0,25.497,4.7,25.497,10.499
	s-11.416,10.499-25.497,10.499s-25.497-4.7-25.497-10.499S51.16,83.24,65.242,83.24z"/>
<path fill-rule="evenodd" clip-rule="evenodd" fill="none" d="M29.996,134.983V87.739c0,0,3.75-15.998,35.246-16.498
	s36.746,14.248,36.746,14.248v21.747"/>
<path fill-rule="evenodd" clip-rule="evenodd" fill="none" d="M101.987,130.484v9.749c0,0-9.249,15.498-32.996,16.498
	s-29.246-7.499-29.246-7.499"/>
<path fill-rule="evenodd" clip-rule="evenodd" fill="none" d="M162.729,86.989L18.748,144.732c0,0-3.25,2-1.5,5.999
	c1.75,4,6,1.5,6,1.5l145.482-49.494c0,0,8.999-2.25,5.999-11.249C171.729,82.49,162.729,86.989,162.729,86.989z"/>
<path fill-rule="evenodd" clip-rule="evenodd" fill="none" d="M27.747,110.986l-9.749,6.749c0,0-2.25,3.25-1.5,5.999
	c0.75,2.75,3,2,5.249,1.5c2.25-0.5,6-3,6-3"/>
<path fill-rule="evenodd" clip-rule="evenodd" fill="none" d="M93.738,75.741l61.492-35.246c0,0,8.249-2,11.249,2.25
	c3,4.25-0.75,10.499-0.75,10.499l-62.992,31.496"/>
</svg>
