<svg version="1.1"  stroke="black" stroke-width="5" stroke-linejoin="round" id="Layer_1" xmlns="http://www.w3.org/2000/svg" xmlns:xlink="http://www.w3.org/1999/xlink" x="0px" y="0px"
	 width="187.477px" height="187.477px" viewBox="0 0 187.477 187.477" enable-background="new 0 0 187.477 187.477"
	 xml:space="preserve">
<path fill-rule="evenodd" clip-rule="evenodd" fill="none" d="M137.983,19.498L21.747,135.733c0,0,64.242,53.744,116.986-1.5
	C191.476,78.99,137.983,19.498,137.983,19.498z"/>
<path fill-rule="evenodd" clip-rule="evenodd" fill="none" d="M31.496,128.234c0,0,44.994,43.495,95.238,0
	c50.244-43.495,4.499-97.488,4.499-97.488"/>
<path fill-rule="evenodd" clip-rule="evenodd" fill="none" d="M113.231,111.732c0,0,1.64,7.902,4.473,10.734
	c2.833,2.833,5.368,0,5.368,0"/>
<path fill-rule="evenodd" clip-rule="evenodd" fill="none" d="M113.231,111.732c0,0,7.902,1.64,10.735,4.473
	c2.833,2.833,0,5.367,0,5.367"/>
<path fill-rule="evenodd" clip-rule="evenodd" fill="none" d="M97.54,121.533c0,0-2.531,7.664-1.494,11.533
	c1.037,3.87,4.648,2.684,4.648,2.684"/>
<path fill-rule="evenodd" clip-rule="evenodd" fill="none" d="M97.54,121.533c0,0,6.023,5.372,7.06,9.241
	c1.037,3.87-2.684,4.648-2.684,4.648"/>
<path fill-rule="evenodd" clip-rule="evenodd" fill="none" d="M79.422,124.015c0,0-4.415,6.673-4.402,10.644
	c0.013,3.97,3.814,3.773,3.814,3.773"/>
<path fill-rule="evenodd" clip-rule="evenodd" fill="none" d="M79.422,124.015c0,0,4.457,6.701,4.469,10.671s-3.791,3.75-3.791,3.75
	"/>
<path fill-rule="evenodd" clip-rule="evenodd" fill="none" d="M63.644,120.735c0,0-7.121,3.513-9.059,6.955
	c-1.938,3.441,1.471,5.217,1.471,5.217"/>
<path fill-rule="evenodd" clip-rule="evenodd" fill="none" d="M63.644,120.735c0,0,0.594,8.079-1.344,11.52
	s-5.142,1.304-5.142,1.304"/>
<path fill-rule="evenodd" clip-rule="evenodd" fill="none" d="M122.493,61.969c0,0,7.79-1.556,10.553-4.385
	c2.764-2.828-0.068-5.428-0.068-5.428"/>
<path fill-rule="evenodd" clip-rule="evenodd" fill="none" d="M122.493,61.969c0,0,1.521-7.97,4.285-10.799
	c2.764-2.828,5.305,0.069,5.305,0.069"/>
<path fill-rule="evenodd" clip-rule="evenodd" fill="none" d="M125.988,79.19c0,0,7.606,2.586,11.434,1.567s2.631-4.654,2.631-4.654
	"/>
<path fill-rule="evenodd" clip-rule="evenodd" fill="none" d="M125.988,79.19c0,0,5.286-6.02,9.113-7.039
	c3.828-1.02,4.621,2.723,4.621,2.723"/>
<path fill-rule="evenodd" clip-rule="evenodd" fill="none" d="M123.74,95.511c0,0,5.305,6.034,9.135,7.065
	c3.83,1.032,4.609-2.706,4.609-2.706"/>
<path fill-rule="evenodd" clip-rule="evenodd" fill="none" d="M123.74,95.511c0,0,7.595-2.559,11.425-1.527
	c3.83,1.031,2.646,4.66,2.646,4.66"/>
</svg>
