<svg version="1.1" stroke="black" stroke-width="5" stroke-linejoin="round" id="Layer_1" xmlns="http://www.w3.org/2000/svg" xmlns:xlink="http://www.w3.org/1999/xlink" x="0px" y="0px"
	 width="187.477px" height="187.477px" viewBox="0 0 187.477 187.477" enable-background="new 0 0 187.477 187.477"
	 xml:space="preserve">
<path fill-rule="evenodd" clip-rule="evenodd" fill="none" d="M88.489,16.498c0,0,53.994,0,50.244,42.745
	c-3.75,42.745-11.249,93.738-11.249,93.738s-2.25,14.998-17.998,14.998s-44.245,0-44.245,0s-11.624-4.875-12.749-14.998
	c-1.125-10.124-11.249-90.739-11.249-90.739S42.847,19.9,88.489,16.498z"/>
<path fill-rule="evenodd" clip-rule="evenodd" fill="none" d="M43.495,57.743l41.245,15.748"/>
<path fill-rule="evenodd" clip-rule="evenodd" fill="none" d="M133.483,45.744c0,0-3.375,13.124-14.249,15.748
	c-10.874,2.625-34.496,2.25-44.244,35.996c-9.749,33.746,6.374,61.867,15.748,68.991"/>
<path fill-rule="evenodd" clip-rule="evenodd" fill="none" d="M53.993,59.243c0,0,6.749-16.498,25.497-17.998"/>
<path fill-rule="evenodd" clip-rule="evenodd" fill="none" d="M126.734,53.993c0,0-3-13.123-17.998-13.498"/>
<path fill-rule="evenodd" clip-rule="evenodd" fill="none" d="M107.986,48.744c0,0-3.75-13.123-23.247-15.748
	c0,0,4.125,17.623,1.5,19.498"/>
<path fill-rule="evenodd" clip-rule="evenodd" fill="none" d="M73.491,55.493c0,0,5.25,2.25,6.75,5.249"/>
<path fill-rule="evenodd" clip-rule="evenodd" fill="none" d="M96.738,93.738c2.071,0,3.75,1.679,3.75,3.75s-1.679,3.75-3.75,3.75
	s-3.75-1.679-3.75-3.75S94.667,93.738,96.738,93.738z"/>
<path fill-rule="evenodd" clip-rule="evenodd" fill="none" d="M107.237,110.236c1.242,0,2.25,1.007,2.25,2.25
	c0,1.243-1.007,2.25-2.25,2.25c-1.243,0-2.25-1.007-2.25-2.25C104.987,111.244,105.994,110.236,107.237,110.236z"/>
</svg>
